<svg xmlns="http://www.w3.org/2000/svg" version="1.1" xmlns:xlink="http://www.w3.org/1999/xlink" xmlns:svgjs="http://svgjs.dev/svgjs" viewBox="0 0 600 600"><path d="M23.792894534972092 179.25654055373585C6.777188154763763 164.59685478306525 23.531112206684327 70.22513287958216 37.143678836729904 49.67539431350144C50.75624546677548 29.125655747420723 88.45258793503717 41.29842338658088 105.46829431524537 55.95810915725144C122.48400069545363 70.617794927922 152.8504837480252 117.08377037144416 139.2379171179796 137.6335089375249C125.62535048793413 158.18324750360566 40.80860091518042 193.91622632440644 23.792894534972092 179.25654055373585C6.777188154763763 164.59685478306525 23.531112206684327 70.22513287958216 37.143678836729904 49.67539431350144 " fill="url(&quot;#SvgjsLinearGradient1000&quot;)" transform="matrix(-1.25411345088715,-2.3259304352332683e-16,2.3259304352332683e-16,-1.25411345088715,130.95375347628115,192.06626490699125)"></path><defs><linearGradient id="SvgjsLinearGradient1000" gradientTransform="rotate(159, 0.5, 0.5)"><stop stop-color="#052a75" offset="0"></stop><stop stop-color="#f7b073" offset="1"></stop></linearGradient><radialGradient id="SvgjsRadialGradient1001"><stop stop-color="hsl(340, 45%, 50%)" offset="0"></stop><stop stop-color="hsl(340, 45%, 80%)" offset="1"></stop></radialGradient><linearGradient id="SvgjsLinearGradient1002" gradientTransform="rotate(93, 0.5, 0.5)"><stop stop-color="#052a75" offset="0"></stop><stop stop-color="#f7b073" offset="1"></stop></linearGradient></defs><path d="M-112.80913171011355 306.3937906250479C-129.82483809032186 291.7341048543773 -113.07091403840131 197.36238295089413 -99.45834740835573 176.8126443848134C-85.84578077831016 156.2629058187327 -48.14943831004845 168.43567345789285 -31.13373192984011 183.0953592285634C-14.118025549631767 197.75504499923397 16.24845750293983 244.22102044275613 2.635890872894265 264.7707590088369C-10.976675757151298 285.3204975749177 -95.79342532990522 321.0534763957186 -112.80913171011355 306.3937906250479C-129.82483809032186 291.7341048543773 -113.07091403840131 197.36238295089413 -99.45834740835573 176.8126443848134 " fill-opacity="1" fill="url(&quot;#SvgjsLinearGradient1002&quot;)" opacity="1" stroke-opacity="1" stroke-width="0" stroke="hsl(340, 45%, 30%)" transform="matrix(-1.1914077783427925,-1.4590537222267598e-16,1.4590537222267596e-16,-1.1914077783427923,497.6361671265099,564.7366388071496)"></path></svg>